<svg width="243" height="63" viewBox="0 0 243 63" fill="none" xmlns="http://www.w3.org/2000/svg">
<g clip-path="url(#clip0)">
<path d="M23.6449 51.9252C23.2904 52.2797 22.8387 52.5211 22.347 52.6189C21.8552 52.7168 21.3455 52.6666 20.8823 52.4747C20.4191 52.2828 20.0232 51.9579 19.7446 51.541C19.4661 51.1242 19.3174 50.634 19.3174 50.1327C19.3174 49.6313 19.4661 49.1412 19.7446 48.7243C20.0232 48.3074 20.4191 47.9825 20.8823 47.7906C21.3455 47.5988 21.8552 47.5486 22.347 47.6464C22.8387 47.7442 23.2904 47.9856 23.6449 48.3402C24.1203 48.8156 24.3874 49.4603 24.3874 50.1327C24.3874 50.805 24.1203 51.4498 23.6449 51.9252Z" fill="#E1D11E"/>
<path d="M21.1241 36.2743C20.7297 35.6247 20.2973 34.9989 19.8291 34.4003C19.9951 33.7713 20.1891 33.1723 20.4001 32.5803L20.4701 32.3693C20.5241 32.2323 20.5821 32.1013 20.6321 31.9693C20.6821 31.8373 20.7271 31.7333 20.7731 31.6133L20.8311 31.6963C20.9431 31.8573 21.0591 32.0153 21.1621 32.1753L21.2821 32.3613C21.6378 32.9063 21.9572 33.4742 22.2381 34.0613C21.829 34.7789 21.4575 35.5172 21.1251 36.2733" fill="#242424"/>
<path d="M19.3631 43.3492C19.0093 40.6627 19.1056 37.9361 19.6481 35.2812C20.0627 35.8439 20.4479 36.4277 20.8021 37.0302C20.3946 38.0289 20.0506 39.0523 19.7721 40.0943C19.5475 41.1663 19.4108 42.2549 19.3631 43.3492" fill="#242424"/>
<path d="M22.6313 33.3753C22.3913 32.9053 22.1223 32.4463 21.8373 32.0023L21.7133 31.8133C21.6023 31.6433 21.4824 31.4733 21.3624 31.3133L21.3293 31.2643C21.2593 31.1643 21.1853 31.0643 21.1053 30.9573L21.0684 30.9113C21.4953 29.9723 21.9899 29.0655 22.5483 28.1983L22.7014 27.9623C22.8374 27.7623 22.9823 27.5573 23.1263 27.3543C23.2263 27.2083 23.3333 27.0653 23.4413 26.9243C23.5613 26.7623 23.6894 26.6023 23.8134 26.4443C23.9584 26.2673 24.0993 26.0923 24.2433 25.9243L24.5954 25.5243C24.7604 25.3423 24.9343 25.1603 25.1043 24.9833C25.2193 24.8593 25.3354 24.7433 25.4564 24.6233C25.6344 24.4453 25.8193 24.2673 26.0063 24.0983C26.1303 23.9823 26.2584 23.8623 26.3824 23.7463C26.5564 23.5973 26.7254 23.4523 26.9004 23.3113C27.2344 23.0253 27.5864 22.7493 27.9464 22.4883C28.3159 23.763 28.581 25.0656 28.7393 26.3833C26.3071 28.3361 24.2393 30.7035 22.6313 33.3763" fill="#242424"/>
<path d="M31.7298 20.125C32.117 21.3232 32.4178 22.5477 32.6298 23.789C31.4781 24.4155 30.375 25.1275 29.3298 25.919C29.15 24.6199 28.8749 23.3358 28.5068 22.077C29.5317 21.3464 30.6101 20.6939 31.7328 20.125" fill="#242424"/>
<path d="M41.2209 40.3848C41.1009 40.5048 40.9849 40.6208 40.8609 40.7368C40.6829 40.9068 40.5009 41.0798 40.3199 41.2458L39.92 41.5978C39.751 41.7428 39.577 41.8838 39.399 42.0278C39.242 42.1518 39.081 42.2808 38.92 42.4008C38.779 42.5088 38.635 42.6118 38.49 42.7148C38.29 42.8598 38.0849 43.0038 37.8819 43.1408L37.646 43.2928C36.4587 44.0599 35.1965 44.7046 33.8789 45.2168C33.7419 45.2698 33.61 45.3168 33.474 45.3738L33.263 45.4438C32.555 45.6958 31.831 45.9228 31.071 46.1128H30.9419C28.171 46.7232 25.3148 46.845 22.502 46.4728C23.5961 46.4276 24.6846 46.2908 25.756 46.0638C31.1792 44.624 35.993 41.4726 39.4817 37.078C42.9705 32.6834 44.9479 27.2802 45.12 21.6718C45.12 21.3618 45.1199 21.0518 45.1039 20.7368C44.7939 20.7248 44.4829 20.7208 44.1689 20.7208C40.3662 20.7881 36.6296 21.7261 33.2459 23.4628C33.0297 22.2289 32.7229 21.0126 32.3279 19.8238C35.6465 18.2436 39.1922 17.1932 42.836 16.7108C45.0748 16.3811 47.3349 16.2167 49.5979 16.2188V16.2438H49.6239C49.6239 18.5067 49.4594 20.7667 49.1319 23.0058C48.1969 29.5308 45.8929 34.9458 42.5399 38.9448L42.1009 39.4568C41.9899 39.5858 41.8649 39.7098 41.7489 39.8328C41.5759 40.0238 41.402 40.2058 41.224 40.3838" fill="#242424"/>
<path d="M14.0946 29.324C13.0145 28.6674 11.8715 28.1204 10.6826 27.691C10.6826 27.443 10.6826 27.207 10.6986 26.963C10.6986 26.793 10.7066 26.615 10.7196 26.445C10.7326 26.218 10.7526 25.999 10.7686 25.776C10.7976 25.407 10.8436 25.039 10.8926 24.668C12.065 25.0688 13.2042 25.561 14.2996 26.14C14.1671 27.1965 14.0984 28.2601 14.0936 29.325" fill="#242424"/>
<path d="M19.6124 45.2696C17.3616 43.5422 15.4287 41.4361 13.9004 39.0456L13.8104 38.9456C13.4182 38.2915 13.0594 37.618 12.7354 36.9276L12.6354 36.7276C12.5744 36.5916 12.5244 36.4596 12.4624 36.3226C11.8922 35.0305 11.4543 33.684 11.1554 32.3036C11.1394 32.2126 11.1144 32.1206 11.0974 32.0306C11.0474 31.7906 11.0064 31.5426 10.9684 31.2986C10.9394 31.1206 10.9064 30.9466 10.8854 30.7686C10.8524 30.5686 10.8324 30.3686 10.8154 30.1686C10.7874 29.9416 10.7664 29.7226 10.7454 29.4946C10.7334 29.3166 10.7254 29.1426 10.7124 28.9646C10.6994 28.7866 10.7004 28.5806 10.6924 28.3906C11.8855 28.8369 13.0287 29.4067 14.1034 30.0906C14.193 34.512 15.3968 38.8392 17.6034 42.6716C18.2002 43.5928 18.8729 44.4624 19.6144 45.2716" fill="#242424"/>
<path d="M24.0462 45.271C24.7877 44.4621 25.4601 43.5924 26.0562 42.671C28.843 37.8237 30.0188 32.2166 29.4142 26.658C29.3892 26.41 29.3611 26.166 29.3271 25.918C29.1474 24.6189 28.8724 23.3348 28.5042 22.076C28.4372 21.852 28.3672 21.633 28.2972 21.414C27.1305 17.7866 25.1485 14.4746 22.5032 11.732C22.2842 11.513 22.0612 11.298 21.8292 11.083C21.5972 11.298 21.3742 11.513 21.1542 11.732C17.541 15.4979 15.1821 20.2899 14.4012 25.45C13.3055 24.8778 12.1659 24.3939 10.9932 24.003C11.9469 18.8343 14.1395 13.9738 17.3831 9.83803C18.7334 8.02255 20.215 6.30863 21.8162 4.71004L21.8292 4.72304L21.8452 4.70703C23.4464 6.3086 24.9284 8.02518 26.2792 9.84303C28.5168 12.7674 30.2847 16.0228 31.5192 19.492C31.5932 19.698 31.6682 19.914 31.7302 20.125C32.1174 21.3233 32.4182 22.5478 32.6302 23.789C32.6672 24.016 32.7052 24.235 32.7302 24.464C32.7972 24.902 32.8462 25.34 32.8832 25.774C32.8992 25.998 32.9242 26.221 32.9322 26.444C32.9452 26.614 32.9492 26.792 32.9532 26.961C32.9662 27.214 32.9742 27.47 32.9742 27.718C32.9742 27.892 32.9742 28.053 32.9662 28.218C32.9662 28.4667 32.9578 28.7147 32.9412 28.962C32.9282 29.14 32.9202 29.314 32.9072 29.492C32.8912 29.716 32.8662 29.938 32.8412 30.162C32.8202 30.362 32.8002 30.567 32.7712 30.77C32.7462 30.943 32.7131 31.117 32.6841 31.295C32.6471 31.539 32.6052 31.787 32.5552 32.027C32.5392 32.117 32.5142 32.209 32.4982 32.3C32.2017 33.6831 31.7623 35.0317 31.1871 36.324C31.1301 36.456 31.0792 36.589 31.0172 36.724L30.9172 36.924C30.594 37.6149 30.2352 38.2884 29.8422 38.942L29.7512 39.042C28.2232 41.4325 26.2906 43.5386 24.0402 45.266" fill="#242424"/>
<path d="M18.7649 46.4082C19.6059 46.5881 20.4607 46.6958 21.3199 46.7302C19.1099 47.0261 16.865 46.931 14.6879 46.4492H14.5879C14.0045 46.3028 13.4288 46.1273 12.8629 45.9232L12.7009 45.8702C12.5939 45.8282 12.4899 45.7822 12.3819 45.7412C11.3454 45.3393 10.352 44.8337 9.41692 44.2322L9.23095 44.1122C9.07495 44.0042 8.91294 43.8932 8.75594 43.7772C8.63894 43.6942 8.52794 43.6152 8.41494 43.5292C8.28694 43.4342 8.16294 43.3352 8.03994 43.2352C7.91694 43.1352 7.76594 43.0122 7.62994 42.9002C7.52994 42.8052 7.41894 42.7152 7.31994 42.6232C7.17094 42.4912 7.03092 42.3582 6.88692 42.2232C6.79592 42.1332 6.69493 42.0412 6.60393 41.9512C6.46293 41.8102 6.32794 41.6652 6.19494 41.5162C6.10394 41.4162 6.00494 41.3162 5.91494 41.2162C5.79794 41.0842 5.68695 40.9472 5.57595 40.8112C2.71229 37.2016 0.917111 32.862 0.393943 28.2842C0.13234 26.5237 0.00196585 24.7461 0.00392807 22.9662H0.0199498V22.9492C1.79962 22.9521 3.57679 23.0821 5.33794 23.3382C7.00861 23.5723 8.65648 23.9473 10.2639 24.4592C10.4793 24.5259 10.6903 24.5962 10.8969 24.6702C12.0696 25.0712 13.2091 25.5634 14.3049 26.1422C14.5116 26.2502 14.7139 26.3619 14.9119 26.4772C15.956 27.068 16.9447 27.7518 17.8659 28.5202C18.0019 28.6312 18.134 28.7472 18.266 28.8632C18.366 28.9582 18.4659 29.0492 18.5659 29.1402C18.7099 29.2772 18.8549 29.4132 18.9969 29.5542C19.0869 29.6452 19.1819 29.7402 19.2689 29.8352C19.4099 29.9762 19.5419 30.1162 19.6739 30.2652C19.7639 30.3652 19.8559 30.4722 19.9459 30.5802C20.0629 30.7122 20.1739 30.8482 20.2859 30.9852L20.3069 31.0132C20.4019 31.1252 20.4919 31.2402 20.5799 31.3612C20.6459 31.4432 20.7089 31.5312 20.7699 31.6182L20.8279 31.7002C20.9409 31.8622 21.0559 32.0192 21.1589 32.1802L21.2789 32.3652C21.6335 32.911 21.9528 33.4788 22.2349 34.0652C22.3536 34.3005 22.4646 34.5445 22.5679 34.7972C22.6469 34.9672 22.7209 35.1492 22.7919 35.3272C22.8329 35.4342 22.8789 35.5382 22.9159 35.6492L22.9709 35.8112C23.1709 36.3652 23.3499 36.9362 23.4999 37.5312V37.6392C23.9826 39.8151 24.0791 42.0589 23.7849 44.2682C23.7504 43.4087 23.643 42.5536 23.4639 41.7122C23.0228 40.0604 22.375 38.4708 21.5359 36.9812C21.4039 36.7422 21.2669 36.5062 21.1219 36.2812C20.7281 35.6316 20.2956 35.0061 19.8269 34.4082C19.6619 34.1932 19.4929 33.9822 19.3139 33.7792C17.9979 32.204 16.4519 30.8363 14.7279 29.7222C14.5237 29.5803 14.3124 29.4488 14.0949 29.3282C13.0146 28.672 11.8716 28.125 10.6829 27.6952C10.4649 27.6082 10.2449 27.5302 10.0259 27.4592C8.1721 26.8514 6.23759 26.5251 4.28695 26.4912C4.04695 26.4912 3.80292 26.4952 3.55492 26.5032C3.54692 26.7512 3.54092 26.9952 3.53792 27.2402C3.67567 31.649 5.23179 35.8958 7.97515 39.3499C10.7185 42.8039 14.5028 45.281 18.766 46.4132" fill="#242424"/>
<path d="M56.3512 24.5769H79.5792V12.9969C79.5903 11.4356 79.2809 9.88874 78.6702 8.45186C77.4922 5.65854 75.2695 3.43591 72.4762 2.25786C71.0393 1.64707 69.4924 1.33769 67.9312 1.34886C66.3811 1.3354 64.8451 1.64497 63.4212 2.25786C60.6448 3.44959 58.4371 5.66915 57.2602 8.45186C56.6494 9.88871 56.34 11.4356 56.3512 12.9969V24.5769ZM79.5792 25.9239H56.3512V50.4989H55.0042V12.9989C54.9924 11.2642 55.3362 9.54556 56.0142 7.94887C56.667 6.40802 57.6032 5.00336 58.7742 3.80786C60.5977 1.98482 62.9224 0.745637 65.4524 0.248078C67.9824 -0.249481 70.6032 0.017086 72.9812 1.01386C76.1031 2.34054 78.5891 4.82609 79.9162 7.94786C80.5941 9.54455 80.9375 11.2633 80.9252 12.9979V50.4979H79.5792V25.9239Z" fill="#242424"/>
<path d="M90.1484 0H91.4954V49.15H103.075C104.637 49.1612 106.184 48.8518 107.62 48.241C110.413 47.0623 112.636 44.8399 113.814 42.047C114.425 40.61 114.734 39.0632 114.723 37.502V0.0019989H116.07V37.502C116.082 39.2367 115.739 40.9554 115.06 42.552C113.733 45.6737 111.247 48.1592 108.125 49.486C106.529 50.1646 104.81 50.5084 103.075 50.496H90.1484V0Z" fill="#242424"/>
<path d="M125.293 0H126.64V37.569C126.626 39.1194 126.935 40.6557 127.548 42.08C128.742 44.8432 130.946 47.0465 133.709 48.24C135.133 48.8529 136.669 49.1624 138.219 49.149C139.78 49.1602 141.327 48.8508 142.764 48.24C145.545 47.0614 147.764 44.8547 148.958 42.08C149.571 40.6556 149.88 39.1194 149.867 37.569V0H151.214V37.569C151.225 39.2719 150.895 40.9598 150.242 42.5327C149.589 44.1056 148.628 45.5315 147.414 46.726C146.219 47.8973 144.814 48.8336 143.273 49.486C141.673 50.1528 139.956 50.4961 138.223 50.4961C136.489 50.4961 134.773 50.1528 133.173 49.486C130.073 48.1834 127.608 45.7177 126.305 42.618C125.627 41.0218 125.283 39.3034 125.295 37.569L125.293 0Z" fill="#242424"/>
<path d="M160.438 0H161.785V49.15H186.36V50.496H160.438V0Z" fill="#242424"/>
<path d="M181.148 0H207.07V1.347H194.748V50.496H193.401V1.347H181.148V0Z" fill="#242424"/>
<path d="M217.641 24.5769H240.869V12.9969C240.88 11.4356 240.571 9.88873 239.96 8.45186C238.782 5.65848 236.56 3.43582 233.766 2.25786C232.329 1.64707 230.782 1.33769 229.221 1.34886C227.671 1.33542 226.135 1.645 224.711 2.25786C221.936 3.45064 219.728 5.66985 218.55 8.45186C217.94 9.88879 217.631 11.4357 217.642 12.9969L217.641 24.5769ZM240.869 25.9239H217.641V50.4989H216.294V12.9989C216.282 11.2642 216.626 9.54551 217.304 7.94887C217.957 6.40799 218.893 5.00333 220.064 3.80786C221.888 1.98482 224.212 0.745637 226.742 0.248078C229.272 -0.249481 231.893 0.017086 234.271 1.01386C237.393 2.34063 239.879 4.82615 241.206 7.94786C241.885 9.54449 242.228 11.2632 242.216 12.9979V50.4979H240.869V25.9239Z" fill="#242424"/>
<path d="M58.2109 61.087L58.1469 61.174C58.0149 61.2303 57.8796 61.2787 57.7419 61.319C57.5929 61.364 57.4419 61.402 57.2809 61.434C57.1199 61.466 56.9679 61.489 56.8129 61.504C56.6579 61.519 56.5129 61.528 56.3839 61.528C55.9813 61.5371 55.5809 61.4661 55.2059 61.319C54.8874 61.1905 54.6029 60.9899 54.3749 60.733C54.1475 60.4685 53.9797 60.1581 53.8829 59.823C53.7707 59.4405 53.716 59.0435 53.7209 58.645C53.6697 57.9035 53.8993 57.17 54.3639 56.59C54.6311 56.335 54.9496 56.1399 55.298 56.0177C55.6465 55.8954 56.017 55.8488 56.3849 55.881C56.6641 55.8808 56.9431 55.8991 57.2199 55.936C57.4979 55.974 57.7701 56.0455 58.0309 56.149L58.0939 56.244V56.503L58.0469 56.603L57.9369 56.643L57.8969 56.631L57.8499 56.6109L57.8809 56.635C57.6402 56.5488 57.3944 56.4777 57.1449 56.422C56.8948 56.3685 56.6397 56.342 56.3839 56.343C56.053 56.3354 55.7236 56.3886 55.4119 56.5C55.1565 56.5953 54.9277 56.7507 54.7449 56.953C54.5661 57.1622 54.4356 57.4084 54.3629 57.674C54.2769 57.9896 54.2359 58.3158 54.2409 58.643C54.2385 58.9653 54.2826 59.2862 54.3719 59.5959C54.4509 59.8755 54.5872 60.1357 54.7719 60.36C54.9544 60.5779 55.1829 60.7527 55.4409 60.8719C55.7385 61.0039 56.0615 61.0685 56.3869 61.061C56.6647 61.061 56.9414 61.025 57.2099 60.954C57.4809 60.884 57.7479 60.803 58.0099 60.715H57.9959L58.0739 60.699L58.1879 60.758L58.2149 60.888L58.2109 61.087Z" fill="#242424"/>
<path d="M64.5534 58.2111C64.538 58.0479 64.512 57.8859 64.4754 57.7261C64.4396 57.5699 64.3908 57.4171 64.3294 57.2691C64.2768 57.1368 64.2005 57.0151 64.1044 56.9101C63.9332 56.7394 63.729 56.6054 63.5044 56.5161C63.2059 56.3946 62.8856 56.3357 62.5634 56.3431C62.245 56.3346 61.9284 56.3922 61.6334 56.5121C61.3868 56.6174 61.1696 56.7811 61.0004 56.9891C60.8295 57.2039 60.7058 57.4522 60.6374 57.7181C60.5589 58.0204 60.5205 58.3317 60.5234 58.6441C60.5224 58.9512 60.5635 59.257 60.6454 59.5531C60.72 59.831 60.8455 60.0928 61.0154 60.3251C61.1832 60.55 61.4005 60.7334 61.6504 60.8611C61.9348 60.9934 62.2447 61.0619 62.5584 61.0619C62.8721 61.0619 63.182 60.9934 63.4664 60.8611C63.7145 60.7328 63.93 60.5494 64.0964 60.3251C64.2661 60.0932 64.3904 59.8312 64.4624 59.5531C64.5422 59.2567 64.5818 58.951 64.5804 58.6441C64.5804 58.5181 64.5734 58.3741 64.5574 58.2111H64.5534ZM64.9514 59.7621C64.8551 60.0966 64.6933 60.4086 64.4754 60.6801C64.258 60.9432 63.9847 61.1547 63.6754 61.2991C63.3255 61.4576 62.9444 61.5355 62.5604 61.5271C62.1705 61.5362 61.7833 61.4608 61.4254 61.3061C61.1146 61.1682 60.8406 60.9592 60.6254 60.6961C60.4093 60.4235 60.2486 60.1113 60.1524 59.7771C60.0455 59.4087 59.993 59.0266 59.9964 58.6431C59.9915 58.2573 60.0413 57.8728 60.1444 57.5011C60.2337 57.1803 60.3928 56.8832 60.6104 56.6311C60.8297 56.3858 61.1039 56.1956 61.4104 56.0761C62.1494 55.8132 62.9564 55.8132 63.6954 56.0761C64.002 56.1956 64.2761 56.3857 64.4954 56.6311C64.7126 56.8831 64.8711 57.1803 64.9594 57.5011C65.064 57.8726 65.1148 58.2571 65.1104 58.6431C65.1123 59.0214 65.0592 59.398 64.9524 59.7611" fill="#242424"/>
<path d="M71.6109 61.4191L71.5169 61.4781H71.2939L71.2159 61.4311C70.6585 60.6644 70.0992 59.9044 69.5379 59.1511C68.9766 58.3977 68.4252 57.6294 67.8839 56.8461C67.8839 57.5974 67.8839 58.3444 67.8839 59.0871C67.8839 59.8297 67.8882 60.5767 67.8969 61.3281L67.8329 61.4151L67.7459 61.4781H67.5189L67.4189 61.3991L67.3799 61.3291V56.0751L67.4439 55.9811L67.5379 55.9181H67.7749L67.8539 55.9651C68.4205 56.7264 68.9796 57.4867 69.5309 58.2461C70.0822 59.0054 70.6286 59.7721 71.1699 60.5461C71.1646 59.7947 71.1593 59.0491 71.1539 58.3091C71.1486 57.5691 71.1432 56.8231 71.1379 56.0711L71.1969 55.9771L71.2869 55.9141H71.5309L71.6259 55.9921L71.6649 56.0711V61.3251L71.6109 61.4191Z" fill="#242424"/>
<path d="M77.5583 56.35L77.4583 56.437C77.317 56.4263 77.1753 56.4173 77.0333 56.41C76.8913 56.402 76.7464 56.398 76.5994 56.398H76.0244V61.329L75.9603 61.416L75.8743 61.479H75.6613L75.5743 61.416L75.5114 61.329V56.398H74.9694C74.8284 56.398 74.6843 56.404 74.5403 56.417C74.3963 56.43 74.2503 56.437 74.1033 56.437L73.9703 56.347L73.9453 56.169V56.075L74.0043 55.981L74.0944 55.918H77.4434L77.5333 55.981L77.5913 56.075V56.288L77.5583 56.35Z" fill="#242424"/>
<path d="M82.1603 56.6012C81.9298 56.3997 81.6301 56.2954 81.3243 56.3102H80.9243H80.7683H80.6103V58.4222C80.718 58.4436 80.8275 58.4557 80.9373 58.4582C81.0493 58.4582 81.1623 58.4582 81.2723 58.4582C81.4363 58.4594 81.6001 58.4423 81.7603 58.4072C81.8984 58.3772 82.0286 58.3182 82.1423 58.2342C82.2517 58.1503 82.337 58.0388 82.3893 57.9112C82.4513 57.7548 82.4809 57.5874 82.4763 57.4192C82.4859 57.2669 82.4628 57.1144 82.4087 56.9718C82.3545 56.8291 82.2705 56.6997 82.1623 56.5922L82.1603 56.6012ZM83.3783 61.4092L83.2883 61.4482L83.1773 61.4642H83.0903H82.9723L82.8723 61.4012C82.8155 61.2886 82.7653 61.1727 82.7223 61.0542C82.6643 60.9022 82.5973 60.7362 82.5223 60.5542C82.4473 60.3722 82.3643 60.1922 82.2773 60.0062C82.1967 59.8308 82.1048 59.6608 82.0023 59.4972C81.9166 59.362 81.8159 59.2369 81.7023 59.1242C81.6646 59.0811 81.6186 59.0459 81.5671 59.0208C81.5156 58.9958 81.4595 58.9813 81.4023 58.9782H80.6303V61.3102L80.5683 61.3972L80.4813 61.4602H80.2603L80.1733 61.3972L80.1113 61.3102V56.0562L80.1613 55.9692L80.2283 55.8992C80.5803 55.8832 80.9373 55.8752 81.3003 55.8752C81.5299 55.8723 81.7589 55.8999 81.9813 55.9572C82.1701 56.0056 82.3461 56.0943 82.4973 56.2172C82.6426 56.3407 82.7538 56.4994 82.8203 56.6782C82.8991 56.8977 82.9364 57.13 82.9303 57.3632C82.9311 57.6556 82.8513 57.9426 82.6998 58.1928C82.5483 58.4429 82.3308 58.6464 82.0713 58.7812C82.2177 58.9316 82.345 59.0996 82.4503 59.2812C82.5703 59.4862 82.6863 59.7042 82.7963 59.9362C82.9063 60.1682 83.0113 60.3962 83.1073 60.6242C83.2033 60.8522 83.2983 61.0542 83.3863 61.2242L83.3703 61.2082L83.4093 61.3082L83.3783 61.4092Z" fill="#242424"/>
<path d="M87.6572 56.6881L86.8572 58.8771H88.4263L87.6572 56.6881ZM89.7443 61.4581L89.6113 61.4851L89.4213 61.4781L89.3212 61.4151L88.5723 59.3591H86.6982C86.4562 60.0517 86.2066 60.7371 85.9492 61.4151L85.8492 61.4781H85.6122L85.5023 61.4421L85.4473 61.3421C85.7806 60.4447 86.1076 59.5517 86.4282 58.6631C86.7489 57.7744 87.0679 56.8791 87.3853 55.9771L87.4852 55.9141H87.8162L87.9272 55.9771L88.8412 58.5931C88.8622 58.6511 88.8993 58.7571 88.9553 58.9121C89.0113 59.0671 89.0753 59.2421 89.1483 59.4361C89.2213 59.6301 89.2972 59.8361 89.3732 60.0461L89.5862 60.6461C89.6529 60.8307 89.7069 60.9867 89.7482 61.1141C89.7772 61.1893 89.7983 61.2674 89.8112 61.3471L89.7443 61.4581Z" fill="#242424"/>
<path d="M94.1951 56.35L94.095 56.437C93.9537 56.4263 93.812 56.4173 93.67 56.41C93.528 56.402 93.383 56.398 93.236 56.398H92.6611V61.329L92.597 61.416L92.511 61.479H92.298L92.2111 61.416L92.1481 61.329V56.398H91.605C91.4637 56.398 91.3207 56.4043 91.176 56.417C91.031 56.431 90.8861 56.437 90.7391 56.437L90.606 56.347L90.5811 56.169V56.075L90.6401 55.981L90.73 55.918H94.079L94.1691 55.981L94.2271 56.075V56.288L94.1951 56.35Z" fill="#242424"/>
<path d="M97.3233 56.6881L96.5233 58.8771H98.0923L97.3233 56.6881ZM99.4103 61.4581L99.2773 61.4851L99.0873 61.4781L98.9873 61.4151L98.2373 59.3591H96.3623C96.1203 60.0517 95.8706 60.7371 95.6133 61.4151L95.5133 61.4781H95.2773L95.1673 61.4421L95.1123 61.3421C95.4456 60.4447 95.7726 59.5517 96.0933 58.6631C96.4139 57.7744 96.733 56.8791 97.0503 55.9771L97.1503 55.9141H97.4813L97.5913 55.9771L98.5053 58.5931C98.5263 58.6511 98.5633 58.7571 98.6203 58.9121C98.6773 59.0671 98.7393 59.2421 98.8123 59.4361C98.8853 59.6301 98.9613 59.8361 99.0363 60.0461C99.1113 60.2561 99.1833 60.4581 99.2493 60.6461C99.3153 60.8341 99.3693 60.9871 99.4113 61.1141C99.4403 61.1893 99.4614 61.2674 99.4743 61.3471L99.4103 61.4581Z" fill="#242424"/>
<path d="M105.664 61.0849L105.602 61.1719C105.462 61.2364 105.317 61.2905 105.168 61.3339C105.015 61.379 104.858 61.4145 104.7 61.4399C104.539 61.4659 104.38 61.4869 104.219 61.4989C104.058 61.5109 103.905 61.5179 103.758 61.5179L103.727 61.6049C103.813 61.6285 103.896 61.6575 103.978 61.6919C104.066 61.7281 104.151 61.773 104.23 61.8259L104.43 62.0149C104.483 62.0882 104.51 62.1766 104.509 62.2669C104.513 62.371 104.49 62.4743 104.442 62.5669L104.264 62.7669C104.186 62.8188 104.1 62.856 104.008 62.8769C103.912 62.9007 103.813 62.9127 103.713 62.9129C103.499 62.9157 103.287 62.8641 103.098 62.7629L103.051 62.6689V62.4329L103.09 62.3259L103.19 62.2829C103.264 62.2931 103.333 62.3232 103.39 62.3699C103.486 62.4298 103.597 62.4598 103.71 62.4559L103.886 62.4249L103.986 62.2909L103.875 62.1769C103.801 62.1479 103.718 62.1169 103.627 62.0829C103.54 62.0513 103.457 62.0103 103.379 61.9609C103.344 61.9406 103.316 61.9113 103.297 61.8761C103.277 61.8409 103.268 61.801 103.269 61.7609L103.289 61.6229L103.324 61.4929C102.981 61.4473 102.65 61.332 102.353 61.1539C102.089 60.9921 101.86 60.7777 101.682 60.5239C101.503 60.263 101.373 59.972 101.297 59.6649C101.215 59.3325 101.174 58.9912 101.176 58.6489C101.124 57.9075 101.353 57.1738 101.818 56.5939C102.085 56.3389 102.404 56.1438 102.752 56.0216C103.101 55.8993 103.471 55.8527 103.839 55.8849C104.118 55.8846 104.397 55.903 104.674 55.9399C104.952 55.978 105.225 56.0495 105.486 56.1529L105.549 56.2479V56.5069L105.502 56.6069L105.392 56.6469L105.352 56.6349L105.305 56.6149L105.335 56.6389C105.094 56.5563 104.848 56.4869 104.599 56.4309C104.35 56.3748 104.095 56.347 103.839 56.3479C103.508 56.3403 103.178 56.3935 102.866 56.5049C102.611 56.6003 102.383 56.7557 102.2 56.9579C102.021 57.1667 101.89 57.413 101.818 57.6789C101.732 57.9945 101.691 58.3207 101.696 58.6479C101.694 58.9701 101.738 59.291 101.826 59.6009C101.906 59.8803 102.042 60.1403 102.226 60.3649C102.408 60.5832 102.637 60.7581 102.895 60.8769C103.193 61.0091 103.516 61.0736 103.841 61.0659C104.119 61.0658 104.396 61.0299 104.664 60.9589C104.934 60.8889 105.201 60.8079 105.464 60.7199H105.456L105.535 60.7039L105.65 60.7629L105.677 60.8929L105.664 61.0849Z" fill="#242424"/>
<path d="M110.163 56.6887L109.363 58.8777H110.93L110.163 56.6887ZM111.856 55.3257C111.749 55.4427 111.623 55.541 111.483 55.6167C111.345 55.6973 111.189 55.7407 111.029 55.7427C110.911 55.7431 110.794 55.7245 110.682 55.6877C110.572 55.6507 110.463 55.6117 110.355 55.5697C110.247 55.5277 110.14 55.4887 110.034 55.4507C109.926 55.4142 109.812 55.3956 109.698 55.3957C109.585 55.3975 109.476 55.4377 109.388 55.5097C109.298 55.5792 109.213 55.6544 109.132 55.7347L109.068 55.7667L108.946 55.7187L108.864 55.6087L108.871 55.6157L108.848 55.5767L108.824 55.5297V55.4107C108.937 55.2819 109.069 55.1704 109.214 55.0797C109.357 54.9836 109.526 54.9315 109.698 54.9297C109.816 54.9293 109.933 54.9479 110.045 54.9847C110.155 55.0217 110.264 55.0637 110.372 55.1107C110.48 55.1577 110.588 55.1997 110.695 55.2367C110.803 55.2736 110.915 55.2925 111.029 55.2927C111.106 55.2941 111.183 55.2747 111.25 55.2367L111.419 55.1187L111.553 55.0047L111.659 54.9537L111.759 55.0087L111.869 55.1907L111.856 55.3257ZM112.25 61.4587L112.116 61.4857L111.927 61.4787L111.827 61.4157L111.079 59.3597H109.204C108.962 60.053 108.712 60.7384 108.455 61.4157L108.355 61.4787H108.118L108.008 61.4427L107.953 61.3427C108.286 60.4454 108.613 59.5524 108.934 58.6637C109.255 57.775 109.573 56.8797 109.89 55.9777L109.99 55.9147H110.32L110.43 55.9777L111.345 58.5937C111.365 58.6517 111.403 58.7577 111.458 58.9127C111.513 59.0677 111.578 59.2427 111.652 59.4367C111.726 59.6307 111.8 59.8367 111.877 60.0467C111.954 60.2567 112.023 60.4587 112.09 60.6467C112.157 60.8347 112.21 60.9877 112.252 61.1147C112.28 61.1902 112.301 61.2683 112.314 61.3477L112.25 61.4587Z" fill="#242424"/>
<path d="M119.159 58.2114C119.143 58.0483 119.117 57.8863 119.081 57.7264C119.045 57.5703 118.997 57.4175 118.936 57.2694C118.883 57.1371 118.807 57.0155 118.711 56.9104C118.539 56.7401 118.335 56.6062 118.111 56.5164C117.812 56.395 117.492 56.3362 117.17 56.3434C116.852 56.3348 116.535 56.3923 116.24 56.5124C115.993 56.6176 115.775 56.7813 115.605 56.9894C115.434 57.2043 115.311 57.4527 115.243 57.7184C115.164 58.0207 115.126 58.3321 115.129 58.6444C115.127 58.9516 115.169 59.2575 115.251 59.5534C115.325 59.8316 115.451 60.0934 115.621 60.3254C115.788 60.5504 116.005 60.7338 116.255 60.8614C116.54 60.9937 116.85 61.0623 117.163 61.0623C117.477 61.0623 117.787 60.9937 118.072 60.8614C118.32 60.7327 118.535 60.5494 118.702 60.3254C118.872 60.0936 118.996 59.8316 119.068 59.5534C119.147 59.257 119.187 58.9513 119.186 58.6444C119.185 58.4998 119.177 58.3553 119.162 58.2114H119.159ZM119.556 59.7624C119.459 60.0969 119.297 60.4089 119.079 60.6804C118.861 60.9436 118.588 61.155 118.279 61.2994C117.929 61.4579 117.548 61.5358 117.164 61.5274C116.774 61.5366 116.387 61.4612 116.029 61.3064C115.718 61.1686 115.444 60.9596 115.229 60.6964C115.012 60.4246 114.851 60.1121 114.756 59.7774C114.648 59.4091 114.595 59.0271 114.598 58.6434C114.594 58.2576 114.644 57.8731 114.748 57.5014C114.837 57.1807 114.996 56.8836 115.213 56.6314C115.432 56.3863 115.706 56.1962 116.013 56.0764C116.752 55.8131 117.558 55.8131 118.297 56.0764C118.603 56.1962 118.877 56.3863 119.097 56.6314C119.314 56.8837 119.472 57.1808 119.561 57.5014C119.665 57.873 119.716 58.2576 119.711 58.6434C119.713 59.0218 119.66 59.3984 119.554 59.7614" fill="#242424"/>
<path d="M127.796 56.7958C127.757 56.6897 127.687 56.5977 127.596 56.5318C127.497 56.4652 127.386 56.4208 127.269 56.4018C127.122 56.3764 126.973 56.3643 126.824 56.3658H126.509C126.409 56.3658 126.298 56.3658 126.193 56.3728V58.6418L126.43 58.6578H126.667C126.861 58.6638 127.055 58.6272 127.234 58.5508C127.38 58.4848 127.507 58.3834 127.604 58.2558C127.701 58.1219 127.769 57.9689 127.804 57.8068C127.844 57.6203 127.864 57.4297 127.863 57.2388C127.868 57.0875 127.845 56.9367 127.795 56.7938L127.796 56.7958ZM128.248 58.1098C128.168 58.3101 128.049 58.4924 127.898 58.6458C127.745 58.7967 127.562 58.9144 127.362 58.9918C127.142 59.0753 126.908 59.1167 126.673 59.1138L126.436 59.1058L126.2 59.0818V61.3278L126.137 61.4178L126.043 61.4758H125.806L125.731 61.4088L125.68 61.3268V56.0728L125.731 55.9848L125.799 55.9148C126.097 55.8995 126.399 55.8915 126.705 55.8908C126.941 55.8881 127.176 55.916 127.405 55.9738C127.597 56.0214 127.776 56.1116 127.929 56.2378C128.075 56.3661 128.187 56.5286 128.256 56.7108C128.337 56.9381 128.375 57.1785 128.369 57.4198C128.372 57.6555 128.329 57.8895 128.243 58.1088" fill="#242424"/>
<path d="M132.929 56.6012C132.699 56.3996 132.399 56.2953 132.094 56.3102H131.694H131.537H131.38V58.4222C131.488 58.4437 131.597 58.4557 131.707 58.4582C131.819 58.4582 131.931 58.4582 132.041 58.4582C132.205 58.4595 132.369 58.4424 132.529 58.4072C132.667 58.3775 132.797 58.3185 132.911 58.2342C133.021 58.1503 133.106 58.0389 133.159 57.9112C133.221 57.7548 133.25 57.5874 133.246 57.4192C133.255 57.2668 133.232 57.1143 133.178 56.9716C133.123 56.829 133.039 56.6996 132.931 56.5922L132.929 56.6012ZM134.148 61.4092L134.058 61.4482L133.948 61.4642H133.861H133.743L133.643 61.4012C133.586 61.2887 133.535 61.1728 133.492 61.0542C133.435 60.9015 133.368 60.7349 133.292 60.5542C133.216 60.3735 133.135 60.1909 133.048 60.0062C132.967 59.8308 132.875 59.6607 132.773 59.4972C132.687 59.362 132.587 59.2369 132.473 59.1242C132.435 59.0811 132.389 59.046 132.338 59.021C132.286 58.9959 132.23 58.9814 132.173 58.9782H131.401V61.3102L131.338 61.3972L131.252 61.4602H131.03L130.944 61.3972L130.881 61.3102V56.0562L130.932 55.9692L130.999 55.8992C131.351 55.8832 131.708 55.8752 132.071 55.8752C132.3 55.8724 132.529 55.9 132.752 55.9572C132.941 56.0056 133.117 56.0943 133.268 56.2172C133.413 56.3407 133.524 56.4994 133.591 56.6782C133.669 56.8978 133.707 57.13 133.701 57.3632C133.702 57.6556 133.623 57.9426 133.471 58.1928C133.32 58.443 133.102 58.6466 132.843 58.7812C132.989 58.9316 133.117 59.0996 133.222 59.2812C133.342 59.4862 133.458 59.7042 133.568 59.9362C133.678 60.1682 133.783 60.3962 133.879 60.6242C133.975 60.8522 134.07 61.0542 134.157 61.2242L134.142 61.2082L134.181 61.3082L134.148 61.4092Z" fill="#242424"/>
<path d="M140.27 58.211C140.255 58.0477 140.229 57.8857 140.191 57.726C140.156 57.5699 140.107 57.417 140.046 57.269C139.994 57.1365 139.918 57.0148 139.821 56.91C139.65 56.7397 139.446 56.6057 139.221 56.516C138.923 56.3946 138.602 56.3357 138.28 56.343C137.962 56.3345 137.646 56.392 137.351 56.512C137.104 56.6174 136.886 56.781 136.716 56.989C136.546 57.2041 136.423 57.4524 136.354 57.718C136.275 58.0202 136.237 58.3316 136.24 58.644C136.239 58.9512 136.28 59.2571 136.362 59.553C136.437 59.831 136.562 60.0927 136.732 60.325C136.9 60.55 137.117 60.7334 137.367 60.861C137.652 60.9933 137.962 61.0618 138.275 61.0618C138.589 61.0618 138.899 60.9933 139.183 60.861C139.431 60.7324 139.647 60.5492 139.813 60.325C139.983 60.0931 140.107 59.8312 140.179 59.553C140.259 59.2566 140.299 58.9509 140.297 58.644C140.297 58.518 140.29 58.374 140.273 58.211H140.27ZM140.667 59.762C140.57 60.0964 140.408 60.4084 140.19 60.68C139.973 60.9431 139.7 61.1546 139.39 61.299C139.04 61.4574 138.659 61.5353 138.275 61.527C137.885 61.5362 137.498 61.4608 137.14 61.306C136.83 61.1681 136.556 60.9592 136.34 60.696C136.124 60.4237 135.963 60.1114 135.867 59.777C135.76 59.4087 135.706 59.0267 135.709 58.643C135.705 58.2571 135.756 57.8725 135.86 57.501C135.949 57.1802 136.107 56.8831 136.324 56.631C136.544 56.3859 136.818 56.1958 137.124 56.076C137.863 55.8132 138.67 55.8132 139.408 56.076C139.715 56.1958 139.989 56.3859 140.208 56.631C140.425 56.8833 140.584 57.1803 140.672 57.501C140.777 57.8725 140.828 58.2571 140.823 58.643C140.825 59.0214 140.772 59.398 140.665 59.761" fill="#242424"/>
<path d="M145.516 56.3891L145.445 56.4201L145.178 56.4091C145.088 56.4091 144.998 56.4091 144.909 56.4091H144.492C144.34 56.4091 144.192 56.4091 144.035 56.4091C143.878 56.4091 143.735 56.4091 143.579 56.4091V58.3941H145.21L145.344 58.4771L145.367 58.6461C145.371 58.6829 145.367 58.7202 145.354 58.7549C145.341 58.7897 145.32 58.8209 145.293 58.8461L145.107 58.9091L144.875 58.9011L144.659 58.8851H143.584V61.3271L143.545 61.3941L143.498 61.4451L143.435 61.4771H143.23L143.168 61.4451L143.12 61.3941L143.082 61.3271V56.0721L143.169 55.9461L143.231 55.9141H145.461L145.524 55.9461L145.579 56.0091L145.603 56.0721V56.3081L145.516 56.3891Z" fill="#242424"/>
<path d="M149.077 61.425L148.989 61.488H147.489L147.402 61.425L147.338 61.338V61.157L147.402 61.07L147.489 61.007H147.989V56.076L148.047 55.981L148.138 55.918H148.351L148.441 55.981L148.5 56.076V61.007H148.988L149.076 61.07L149.138 61.157V61.338L149.077 61.425Z" fill="#242424"/>
<path d="M154.371 60.7579C154.285 60.9301 154.16 61.0798 154.005 61.1949C153.845 61.313 153.663 61.3986 153.469 61.4469C153.262 61.5004 153.048 61.527 152.834 61.5259C152.609 61.5262 152.384 61.5105 152.161 61.4789C151.937 61.4475 151.717 61.3949 151.503 61.3219L151.409 61.1879V60.9049L151.449 60.8049L151.549 60.7579L151.702 60.8009L151.848 60.8759C152.004 60.934 152.165 60.9801 152.328 61.0139C152.493 61.0481 152.66 61.0651 152.828 61.0649C152.97 61.0647 153.112 61.0476 153.25 61.0139C153.385 60.9819 153.512 60.9271 153.628 60.8519C153.739 60.7794 153.832 60.6822 153.899 60.5679C153.97 60.4406 154.004 60.2964 153.999 60.1509C154.009 59.9305 153.942 59.7136 153.81 59.5369C153.679 59.3746 153.519 59.2374 153.338 59.1319C153.139 59.0148 152.933 58.9109 152.72 58.8209C152.503 58.7299 152.296 58.6163 152.102 58.4819C151.913 58.3523 151.752 58.1864 151.628 57.9939C151.517 57.7865 151.453 57.557 151.442 57.3219C151.43 57.0869 151.471 56.8522 151.561 56.6349C151.637 56.4705 151.751 56.326 151.892 56.2129C152.038 56.1001 152.203 56.0163 152.38 55.9659C152.575 55.909 152.777 55.881 152.98 55.8829C153.183 55.8829 153.385 55.8959 153.586 55.9219C153.788 55.9473 153.986 55.9949 154.177 56.0639L154.271 56.1969V56.4409L154.237 56.5409L154.137 56.5879L154.058 56.5719L154.074 56.5799C153.963 56.5489 153.868 56.5179 153.787 56.4899L153.55 56.4149C153.47 56.393 153.388 56.3759 153.305 56.3639C153.199 56.3491 153.092 56.3424 152.985 56.3439C152.853 56.3431 152.721 56.3589 152.592 56.3909C152.471 56.4189 152.357 56.471 152.256 56.5439C152.16 56.6148 152.08 56.7063 152.024 56.8119C151.962 56.936 151.933 57.0734 151.937 57.2119C151.927 57.4281 151.994 57.6409 152.126 57.8119C152.261 57.9688 152.423 58.1008 152.603 58.2019C152.803 58.3153 153.01 58.4155 153.222 58.5019C153.44 58.5928 153.647 58.7068 153.84 58.8419C154.031 58.975 154.193 59.145 154.317 59.3419C154.453 59.5788 154.518 59.8493 154.506 60.1219C154.512 60.3412 154.467 60.5588 154.372 60.7569" fill="#242424"/>
<path d="M159.703 60.7579C159.617 60.9303 159.491 61.08 159.336 61.1949C159.176 61.3132 158.994 61.3988 158.801 61.4469C158.594 61.5003 158.381 61.5269 158.167 61.5259C157.942 61.5262 157.716 61.5105 157.493 61.4789C157.27 61.4475 157.05 61.3949 156.836 61.3219L156.741 61.1879V60.9049L156.78 60.8049L156.88 60.7579L157.032 60.8009L157.178 60.8759C157.335 60.9339 157.496 60.98 157.659 61.0139C157.824 61.0481 157.991 61.0652 158.159 61.0649C158.301 61.0646 158.442 61.0475 158.58 61.0139C158.715 60.9819 158.842 60.9271 158.958 60.8519C159.07 60.7797 159.163 60.6824 159.23 60.5679C159.3 60.4404 159.335 60.2963 159.33 60.1509C159.34 59.9306 159.274 59.7137 159.142 59.5369C159.01 59.3745 158.85 59.2373 158.669 59.1319C158.47 59.0146 158.264 58.9107 158.051 58.8209C157.834 58.7299 157.627 58.6162 157.433 58.4819C157.245 58.352 157.084 58.1861 156.96 57.9939C156.849 57.7866 156.784 57.5571 156.773 57.322C156.761 57.0869 156.802 56.8522 156.892 56.6349C156.969 56.4705 157.083 56.3261 157.224 56.2129C157.369 56.1 157.535 56.0161 157.712 55.9659C157.905 55.9094 158.105 55.8815 158.306 55.8829C158.509 55.8828 158.711 55.8959 158.912 55.9219C159.114 55.9473 159.313 55.9949 159.504 56.0639L159.598 56.1969V56.4409L159.562 56.5409L159.462 56.5879L159.383 56.5719L159.399 56.5799C159.289 56.5489 159.194 56.5179 159.112 56.4899L158.875 56.4149C158.795 56.3927 158.713 56.3757 158.631 56.3639C158.525 56.3491 158.419 56.3424 158.312 56.3439C158.179 56.3431 158.047 56.3589 157.918 56.3909C157.798 56.4192 157.684 56.4712 157.584 56.5439C157.487 56.6146 157.408 56.7062 157.351 56.8119C157.289 56.9359 157.26 57.0734 157.264 57.2119C157.254 57.4281 157.321 57.641 157.454 57.8119C157.589 57.969 157.75 58.1011 157.93 58.2019C158.13 58.3149 158.336 58.4151 158.548 58.5019C158.766 58.5924 158.973 58.7064 159.166 58.8419C159.358 58.9744 159.52 59.1445 159.644 59.3419C159.78 59.5788 159.845 59.8492 159.833 60.1219C159.839 60.3411 159.794 60.5588 159.699 60.7569" fill="#242424"/>
<path d="M163.73 61.425L163.642 61.488H162.142L162.056 61.425L161.992 61.338V61.157L162.056 61.07L162.142 61.007H162.642V56.076L162.7 55.981L162.791 55.918H163.004L163.094 55.981L163.153 56.076V61.007H163.641L163.729 61.07L163.791 61.157V61.338L163.73 61.425Z" fill="#242424"/>
<path d="M170.101 58.211C170.086 58.0478 170.06 57.8857 170.023 57.726C169.988 57.5699 169.939 57.417 169.878 57.269C169.826 57.1367 169.749 57.015 169.653 56.91C169.482 56.7397 169.278 56.6057 169.053 56.516C168.755 56.3946 168.434 56.3358 168.112 56.343C167.794 56.3343 167.477 56.3919 167.182 56.512C166.935 56.6175 166.717 56.7811 166.547 56.989C166.377 57.2041 166.254 57.4524 166.185 57.718C166.106 58.0202 166.068 58.3316 166.071 58.644C166.07 58.9512 166.111 59.2571 166.193 59.553C166.268 59.831 166.393 60.0927 166.563 60.325C166.731 60.55 166.948 60.7334 167.198 60.861C167.483 60.9933 167.793 61.0618 168.106 61.0618C168.42 61.0618 168.73 60.9933 169.014 60.861C169.262 60.7325 169.478 60.5492 169.644 60.325C169.814 60.0931 169.938 59.8312 170.01 59.553C170.09 59.2566 170.13 58.9509 170.128 58.644C170.128 58.4994 170.12 58.3549 170.104 58.211H170.101ZM170.499 59.762C170.402 60.0964 170.24 60.4084 170.022 60.68C169.805 60.9431 169.532 61.1546 169.222 61.299C168.872 61.4574 168.491 61.5353 168.107 61.527C167.717 61.5362 167.33 61.4608 166.972 61.306C166.662 61.1682 166.387 60.9592 166.172 60.696C165.956 60.4237 165.795 60.1114 165.699 59.777C165.592 59.4086 165.539 59.0266 165.542 58.643C165.538 58.2572 165.588 57.8727 165.691 57.501C165.78 57.1803 165.939 56.8832 166.156 56.631C166.376 56.3859 166.65 56.1958 166.956 56.076C167.695 55.8132 168.502 55.8132 169.24 56.076C169.547 56.1958 169.821 56.3859 170.04 56.631C170.257 56.8833 170.416 57.1804 170.504 57.501C170.609 57.8725 170.66 58.2571 170.655 58.643C170.657 59.0214 170.604 59.398 170.497 59.761" fill="#242424"/>
<path d="M177.161 61.4191L177.061 61.4781H176.841L176.762 61.4311C176.204 60.6644 175.645 59.9044 175.084 59.1511C174.522 58.3977 173.971 57.6294 173.43 56.8461C173.43 57.5974 173.43 58.3444 173.43 59.0871C173.43 59.8297 173.433 60.5767 173.441 61.3281L173.379 61.4151L173.292 61.4781H173.063L172.969 61.3991L172.93 61.3291V56.0751L172.993 55.9811L173.093 55.9181H173.328L173.407 55.9651C173.973 56.7264 174.532 57.4867 175.084 58.2461C175.635 59.0054 176.181 59.7721 176.723 60.5461C176.723 59.7951 176.712 59.0461 176.707 58.3091C176.702 57.5721 176.697 56.8231 176.691 56.0711L176.751 55.9771L176.841 55.9141H177.085L177.179 55.9921L177.218 56.0711V61.3251L177.161 61.4191Z" fill="#242424"/>
<path d="M181.761 56.6881L180.961 58.8771H182.53L181.761 56.6881ZM183.848 61.4581L183.714 61.4851L183.525 61.4781L183.425 61.4151L182.676 59.3591H180.8C180.558 60.0517 180.308 60.7371 180.051 61.4151L179.951 61.4781H179.71L179.6 61.4421L179.545 61.3421C179.878 60.4447 180.205 59.5517 180.526 58.6631C180.847 57.7744 181.166 56.8791 181.483 55.9771L181.583 55.9141H181.914L182.024 55.9771L182.938 58.5931C182.959 58.6511 182.996 58.7571 183.052 58.9121C183.108 59.0671 183.172 59.2421 183.245 59.4361C183.318 59.6301 183.394 59.8361 183.47 60.0461C183.546 60.2561 183.617 60.4581 183.683 60.6461C183.749 60.8341 183.802 60.9871 183.845 61.1141C183.873 61.1895 183.894 61.2675 183.907 61.3471L183.848 61.4581Z" fill="#242424"/>
<path d="M188.737 61.2569V61.3319L188.698 61.3989L188.65 61.4499L188.586 61.4819H186.254L186.192 61.4499L186.149 61.3919L186.113 61.3329V56.0789L186.149 56.0119L186.192 55.9529L186.254 55.9219H186.467L186.567 55.9849L186.629 56.0789V61.0029H187.677C187.829 61.0029 187.977 60.9979 188.134 60.9869C188.291 60.9759 188.434 60.9709 188.591 60.9709L188.717 61.0379L188.749 61.1839L188.737 61.2569Z" fill="#242424"/>
<path d="M196.389 61.425L196.302 61.488H194.802L194.716 61.425L194.653 61.338V61.157L194.716 61.07L194.802 61.007H195.302V56.076L195.36 55.981L195.45 55.918H195.663L195.754 55.981L195.812 56.076V61.007H196.3L196.387 61.07L196.451 61.157V61.338L196.389 61.425Z" fill="#242424"/>
<path d="M202.903 61.4191L202.809 61.4781H202.589L202.51 61.4311C201.953 60.6644 201.394 59.9044 200.832 59.1511C200.27 58.3977 199.718 57.6294 199.178 56.8461C199.178 57.5974 199.178 58.3444 199.178 59.0871C199.178 59.8297 199.182 60.5767 199.191 61.3281L199.127 61.4151L199.04 61.4781H198.813L198.718 61.3991L198.678 61.3291V56.0751L198.742 55.9811L198.836 55.9181H199.072L199.151 55.9651C199.717 56.7264 200.276 57.4867 200.828 58.2461C201.379 59.0054 201.925 59.7721 202.467 60.5461C202.461 59.7947 202.456 59.0491 202.451 58.3091C202.445 57.5691 202.44 56.8231 202.436 56.0711L202.494 55.9771L202.585 55.9141H202.828L202.923 55.9921L202.963 56.0711V61.3251L202.903 61.4191Z" fill="#242424"/>
<path d="M209.732 61.087L209.669 61.174C209.537 61.2301 209.402 61.2785 209.264 61.319C209.114 61.364 208.964 61.402 208.803 61.434C208.642 61.466 208.489 61.489 208.335 61.504C208.181 61.519 208.035 61.528 207.906 61.528C207.503 61.5371 207.103 61.4661 206.727 61.319C206.409 61.1908 206.125 60.9901 205.897 60.733C205.67 60.4685 205.502 60.1581 205.405 59.823C205.293 59.4406 205.238 59.0435 205.243 58.645C205.192 57.9035 205.421 57.1698 205.886 56.59C206.154 56.335 206.472 56.1399 206.821 56.0177C207.169 55.8954 207.54 55.8488 207.907 55.881C208.187 55.8807 208.466 55.8991 208.743 55.936C209.021 55.9741 209.293 56.0456 209.554 56.149L209.618 56.244V56.503L209.57 56.603L209.46 56.643L209.42 56.631L209.373 56.6109L209.403 56.635C209.163 56.5487 208.917 56.4776 208.667 56.422C208.418 56.3685 208.163 56.342 207.907 56.343C207.576 56.3354 207.246 56.3886 206.934 56.5C206.679 56.5954 206.451 56.7508 206.268 56.953C206.089 57.162 205.959 57.4083 205.886 57.674C205.8 57.9896 205.759 58.3158 205.764 58.643C205.762 58.9653 205.806 59.2862 205.895 59.5959C205.975 59.8755 206.111 60.1357 206.295 60.36C206.478 60.5787 206.707 60.7536 206.965 60.8719C207.263 61.004 207.585 61.0686 207.91 61.061C208.188 61.061 208.465 61.025 208.733 60.954C209.003 60.884 209.27 60.803 209.533 60.715H209.525L209.605 60.699L209.719 60.758L209.746 60.888L209.732 61.087Z" fill="#242424"/>
<path d="M214.619 61.2569V61.3319L214.58 61.3989L214.533 61.4499L214.47 61.4819H212.139L212.075 61.4499L212.032 61.3919L211.996 61.3329V56.0789L212.032 56.0119L212.075 55.9529L212.139 55.9219H212.351L212.446 55.9849L212.509 56.0789V61.0029H213.556C213.708 61.0029 213.856 60.9979 214.012 60.9869C214.168 60.9759 214.312 60.9709 214.469 60.9709L214.595 61.0379L214.627 61.1839L214.619 61.2569Z" fill="#242424"/>
<path d="M220.616 57.8593C220.609 58.3973 220.584 58.9369 220.541 59.4783C220.519 59.7615 220.461 60.0407 220.368 60.3092C220.285 60.5473 220.156 60.7668 219.988 60.9553C219.821 61.1403 219.614 61.2847 219.383 61.3773C219.114 61.4824 218.828 61.5334 218.539 61.5273C218.237 61.5351 217.936 61.4897 217.649 61.3932C217.421 61.3135 217.217 61.178 217.055 60.9993C216.893 60.8126 216.773 60.5938 216.701 60.3573C216.614 60.0739 216.56 59.7818 216.538 59.4863C216.497 58.9529 216.472 58.4196 216.464 57.8863C216.456 57.3529 216.452 56.8196 216.452 56.2863V56.0733L216.511 55.9783L216.601 55.9153H216.814L216.908 55.9783L216.971 56.0733C216.971 56.6346 216.969 57.1976 216.964 57.7623C216.958 58.3266 216.985 58.8909 217.043 59.4523C217.059 59.675 217.1 59.8953 217.164 60.1093C217.218 60.2917 217.308 60.4617 217.428 60.6093C217.547 60.7508 217.698 60.8613 217.869 60.9313C218.082 61.0138 218.31 61.0526 218.538 61.0453C218.755 61.0502 218.971 61.0072 219.169 60.9193C219.342 60.8398 219.495 60.723 219.617 60.5773C219.741 60.4295 219.835 60.2599 219.896 60.0773C219.964 59.8767 220.011 59.6696 220.035 59.4593C220.077 59.094 220.099 58.7268 220.102 58.3593C220.102 57.9919 220.102 57.6269 220.102 57.2643V56.0643L220.166 55.9693L220.26 55.9062H220.472L220.564 55.9693L220.622 56.0643V56.2292C220.622 56.7699 220.618 57.3096 220.61 57.8483" fill="#242424"/>
<path d="M225.898 60.758C225.811 60.9302 225.686 61.0798 225.532 61.195C225.371 61.3131 225.189 61.3987 224.996 61.447C224.789 61.5004 224.575 61.5269 224.362 61.5259C224.136 61.5263 223.912 61.5106 223.689 61.4789C223.465 61.4478 223.245 61.3952 223.032 61.322L222.932 61.1879V60.905L222.971 60.805L223.071 60.758L223.223 60.801L223.37 60.876C223.526 60.934 223.686 60.9801 223.85 61.014C224.014 61.0482 224.182 61.0653 224.35 61.0649C224.492 61.0647 224.633 61.0476 224.771 61.014C224.905 60.9823 225.033 60.9275 225.149 60.8519C225.26 60.7798 225.353 60.6826 225.421 60.568C225.491 60.4406 225.526 60.2965 225.521 60.1509C225.53 59.9306 225.464 59.7136 225.332 59.5369C225.2 59.3746 225.039 59.2374 224.859 59.1319C224.66 59.0147 224.453 58.9108 224.241 58.821C224.023 58.7298 223.816 58.6162 223.623 58.482C223.434 58.3521 223.274 58.1862 223.15 57.9939C223.015 57.7631 222.949 57.4982 222.961 57.2309C222.955 57.0243 222.997 56.8191 223.083 56.631C223.159 56.4667 223.272 56.3222 223.414 56.209C223.559 56.0962 223.725 56.0124 223.902 55.962C224.095 55.9055 224.295 55.8775 224.496 55.879C224.698 55.8789 224.901 55.892 225.102 55.918C225.304 55.9434 225.502 55.991 225.694 56.06L225.794 56.193V56.437L225.758 56.5369L225.658 56.584L225.58 56.568L225.596 56.5759C225.485 56.5449 225.39 56.514 225.308 56.486L225.072 56.411C224.991 56.3889 224.909 56.3719 224.827 56.3599C224.721 56.3452 224.615 56.3385 224.509 56.34C224.376 56.3392 224.243 56.3549 224.115 56.387C223.994 56.4155 223.88 56.4675 223.78 56.54C223.683 56.6107 223.603 56.7023 223.547 56.808C223.485 56.932 223.455 57.0695 223.46 57.208C223.449 57.4242 223.517 57.6371 223.65 57.808C223.784 57.9647 223.945 58.0967 224.126 58.198C224.325 58.311 224.531 58.4112 224.744 58.4979C224.962 58.5885 225.169 58.7025 225.363 58.838C225.554 58.9705 225.716 59.1407 225.84 59.338C225.975 59.5749 226.041 59.8453 226.029 60.118C226.035 60.3372 225.989 60.5549 225.895 60.753" fill="#242424"/>
<path d="M229.923 61.425L229.836 61.488H228.336L228.249 61.425L228.187 61.338V61.157L228.249 61.07L228.336 61.007H228.836V56.076L228.894 55.981L228.984 55.918H229.197L229.288 55.981L229.346 56.076V61.007H229.834L229.921 61.07L229.984 61.157V61.338L229.923 61.425Z" fill="#242424"/>
<path d="M236.218 56.2984C236.159 56.4424 236.085 56.6294 235.993 56.8614C235.901 57.0934 235.793 57.3534 235.669 57.6444C235.545 57.9354 235.421 58.2374 235.291 58.5504C235.161 58.8634 235.033 59.1734 234.906 59.4804C234.779 59.7874 234.659 60.0704 234.548 60.3304C234.437 60.5904 234.343 60.8174 234.264 61.0074C234.185 61.1974 234.13 61.3344 234.098 61.4134L233.998 61.4764H233.753L233.653 61.4134L232.683 58.6954C232.662 58.6424 232.625 58.5444 232.573 58.3954C232.521 58.2464 232.46 58.0854 232.391 57.8954C232.322 57.7054 232.25 57.5074 232.175 57.2954C232.1 57.0834 232.029 56.8954 231.967 56.7204C231.905 56.5454 231.851 56.3934 231.809 56.2674C231.781 56.1962 231.76 56.1225 231.745 56.0474L231.813 55.9254L231.951 55.8984H232.046H232.14L232.25 55.9614L233.896 60.6404C234.212 59.8578 234.53 59.0781 234.849 58.3014C235.168 57.5248 235.489 56.7448 235.81 55.9614L235.91 55.8984H236.162L236.262 55.9384L236.302 56.0384C236.279 56.1204 236.25 56.2006 236.215 56.2784" fill="#242424"/>
<path d="M239.107 56.6881L238.307 58.8771H239.877L239.107 56.6881ZM241.195 61.4581L241.062 61.4851L240.872 61.4781L240.771 61.4151L240.021 59.3591H238.146C237.904 60.0517 237.655 60.7371 237.398 61.4151L237.297 61.4781H237.062L236.951 61.4421L236.896 61.3421C237.229 60.4447 237.556 59.5517 237.878 58.6631C238.199 57.7744 238.517 56.8791 238.833 55.9771L238.934 55.9141H239.265L239.375 55.9771L240.289 58.5931C240.31 58.6511 240.347 58.7571 240.403 58.9121C240.459 59.0671 240.523 59.2421 240.596 59.4361C240.669 59.6301 240.744 59.8361 240.82 60.0461C240.896 60.2561 240.969 60.4581 241.034 60.6461C241.099 60.8341 241.153 60.9871 241.195 61.1141C241.224 61.1895 241.245 61.2675 241.258 61.3471L241.195 61.4581Z" fill="#242424"/>
</g>
<defs>
<clipPath id="clip0">
<rect width="242.216" height="62.904" fill="white"/>
</clipPath>
</defs>
</svg>
